<svg width="25" height="24" viewBox="0 0 25 24" fill="none" xmlns="http://www.w3.org/2000/svg">
<path d="M12.4998 15H8.5V21H12.4998V15Z" stroke="#344054" stroke-width="0.96" stroke-linecap="round" stroke-linejoin="round"/>
<path d="M21.5 21H3.5M16.4998 21H4.49984V7.71984C4.48824 7.50173 4.54848 7.28583 4.67133 7.10523C4.79418 6.92464 4.97287 6.78931 5.18 6.72L16.4998 3V21ZM16.4998 21V9H19.4998C19.6312 8.99994 19.7612 9.02575 19.8826 9.07597C20.004 9.12619 20.1142 9.19983 20.2071 9.29268C20.3 9.38553 20.3737 9.49577 20.424 9.61711C20.4743 9.73844 20.5002 9.8685 20.5002 9.99984V21H16.4998Z" stroke="#306CFE" stroke-width="0.96" stroke-linecap="round" stroke-linejoin="round"/>
</svg>
