<svg width="25" height="24" viewBox="0 0 25 24" fill="none" xmlns="http://www.w3.org/2000/svg">
<path d="M22 12H19.889M19.889 12C19.889 13.9598 19.111 15.8389 17.7252 17.2247C16.3394 18.6105 14.4598 19.389 12.5 19.389M19.889 12C19.889 10.0402 19.111 8.16013 17.7252 6.77433C16.3394 5.38853 14.4598 4.611 12.5 4.611M12.5 2.5V4.611M12.5 4.611C10.5403 4.611 8.66089 5.38848 7.27519 6.77419C5.88948 8.15989 5.111 10.0393 5.111 11.999C5.111 13.9587 5.88948 15.8381 7.27519 17.2238C8.66089 18.6095 10.5403 19.389 12.5 19.389M3 12H5.111M12.5 21.5V19.389" stroke="black" stroke-width="1.5" stroke-miterlimit="10" stroke-linecap="round"/>
<path d="M12.4993 16.2221C13.6191 16.2221 14.693 15.7773 15.4847 14.9855C16.2765 14.1937 16.7213 13.1198 16.7213 12.0001C16.7213 10.8803 16.2765 9.80645 15.4847 9.01467C14.693 8.22289 13.6191 7.77808 12.4993 7.77808C11.3796 7.77808 10.3057 8.22289 9.51394 9.01467C8.72216 9.80645 8.27734 10.8803 8.27734 12.0001C8.27734 13.1198 8.72216 14.1937 9.51394 14.9855C10.3057 15.7773 11.3796 16.2221 12.4993 16.2221Z" stroke="#306CFE" stroke-miterlimit="10" stroke-linecap="round"/>
</svg>
